<svg width="24" height="24" viewBox="0 0 24 24" fill="none" xmlns="http://www.w3.org/2000/svg">
<path fill-rule="evenodd" clip-rule="evenodd" d="M7.5 0H16.5C20.6415 0 24 3.3585 24 7.5V16.5C24 20.6415 20.6415 24 16.5 24H7.5C3.3585 24 0 20.6415 0 16.5V7.5C0 3.3585 3.3585 0 7.5 0ZM16.5 21.75C19.395 21.75 21.75 19.395 21.75 16.5V7.5C21.75 4.605 19.395 2.25 16.5 2.25H7.5C4.605 2.25 2.25 4.605 2.25 7.5V16.5C2.25 19.395 4.605 21.75 7.5 21.75H16.5Z" fill="#818895"/>
<path fill-rule="evenodd" clip-rule="evenodd" d="M6 12C6 8.6865 8.6865 6 12 6C15.3135 6 18 8.6865 18 12C18 15.3135 15.3135 18 12 18C8.6865 18 6 15.3135 6 12ZM8.25 12C8.25 14.067 9.933 15.75 12 15.75C14.067 15.75 15.75 14.067 15.75 12C15.75 9.9315 14.067 8.25 12 8.25C9.933 8.25 8.25 9.9315 8.25 12Z" fill="#818895"/>
<path fill-rule="evenodd" clip-rule="evenodd" d="M18.4501 6.34951C18.8916 6.34951 19.2496 5.99156 19.2496 5.55001C19.2496 5.10845 18.8916 4.7505 18.4501 4.7505C18.0085 4.7505 17.6506 5.10845 17.6506 5.55001C17.6506 5.99156 18.0085 6.34951 18.4501 6.34951Z" fill="#818895"/>
</svg>
