<svg width="24" height="14" viewBox="0 0 24 14" fill="none" xmlns="http://www.w3.org/2000/svg">
<path fill-rule="evenodd" clip-rule="evenodd" d="M23.7843 12.2564C23.7198 12.1484 23.3208 11.2814 21.4008 9.49943C19.3908 7.63343 19.6608 7.93643 22.0818 4.70993C23.5563 2.74493 24.1458 1.54493 23.9613 1.03193C23.7858 0.542931 22.7013 0.671931 22.7013 0.671931L19.0953 0.692931C19.0953 0.692931 18.8283 0.656931 18.6288 0.775431C18.4353 0.892431 18.3108 1.16243 18.3108 1.16243C18.3108 1.16243 17.7393 2.68343 16.9773 3.97643C15.3708 6.70493 14.7273 6.84893 14.4648 6.67943C13.8543 6.28493 14.0073 5.09243 14.0073 4.24643C14.0073 1.60193 14.4078 0.499431 13.2258 0.214431C12.8328 0.119932 12.5448 0.0569315 11.5413 0.0464315C10.2543 0.0329315 9.16383 0.0509315 8.54733 0.352431C8.13633 0.553431 7.81983 1.00193 8.01333 1.02743C8.25183 1.05893 8.79183 1.17293 9.07833 1.56293C9.44883 2.06543 9.43534 3.19643 9.43534 3.19643C9.43534 3.19643 9.64833 6.30893 8.93884 6.69593C8.45133 6.96143 7.78383 6.41993 6.35134 3.94343C5.61784 2.67593 5.06283 1.27343 5.06283 1.27343C5.06283 1.27343 4.95633 1.01243 4.76583 0.872931C4.53483 0.703431 4.21083 0.649431 4.21083 0.649431L0.781835 0.670431C0.781835 0.670431 0.267335 0.685431 0.0783349 0.908931C-0.0896651 1.10843 0.0648349 1.51943 0.0648349 1.51943C0.0648349 1.51943 2.74984 7.79993 5.78884 10.9664C8.57734 13.8689 11.7423 13.6784 11.7423 13.6784H13.1763C13.1763 13.6784 13.6098 13.6304 13.8303 13.3919C14.0343 13.1729 14.0268 12.7619 14.0268 12.7619C14.0268 12.7619 13.9983 10.8374 14.8923 10.5539C15.7728 10.2749 16.9038 12.4139 18.1023 13.2374C19.0083 13.8599 19.6968 13.7234 19.6968 13.7234L22.9023 13.6784C22.9023 13.6784 24.5793 13.5749 23.7843 12.2564Z" fill="#818895"/>
</svg>
