<svg width="24" height="24" viewBox="0 0 24 24" fill="none" xmlns="http://www.w3.org/2000/svg">
<path fill-rule="evenodd" clip-rule="evenodd" d="M11.997 0H12.003C18.6195 0 24 5.3835 24 12C24 18.6165 18.6195 24 12.003 24C9.5625 24 7.299 23.274 5.4015 22.017L0.789 23.4915L2.2845 19.0335C0.846 17.058 0 14.625 0 12C0 5.382 5.3805 0 11.997 0ZM16.6305 18.639C17.547 18.441 18.696 17.763 18.9855 16.9455C19.275 16.1265 19.275 15.429 19.191 15.2805C19.1231 15.1627 18.9628 15.0854 18.7233 14.9702C18.661 14.9401 18.5933 14.9076 18.5205 14.871C18.168 14.6955 16.4535 13.848 16.1295 13.7355C15.8115 13.6155 15.5085 13.6575 15.2685 13.9965C15.2228 14.0604 15.1773 14.1244 15.132 14.1881C14.8424 14.5953 14.5631 14.9881 14.331 15.2385C14.1195 15.4635 13.7745 15.492 13.485 15.372C13.4534 15.3588 13.4172 15.3442 13.3767 15.3278C12.9183 15.1427 11.9016 14.7321 10.671 13.6365C9.63296 12.7125 8.92796 11.562 8.72396 11.217C8.52367 10.8709 8.69644 10.668 8.85611 10.4804C8.85907 10.4769 8.86202 10.4734 8.86496 10.47C8.96791 10.3426 9.06781 10.2365 9.16821 10.13C9.24043 10.0533 9.31291 9.97633 9.38696 9.89099C9.39796 9.87831 9.40866 9.86601 9.41908 9.85403C9.57632 9.67323 9.66995 9.56557 9.77546 9.34049C9.89546 9.10799 9.80996 8.86799 9.72446 8.69099C9.66564 8.56703 9.30225 7.68535 8.99029 6.92846C8.8568 6.60456 8.73272 6.30352 8.64596 6.09449C8.41346 5.53799 8.23646 5.51699 7.88396 5.50199C7.87316 5.50145 7.86225 5.50089 7.85123 5.50034C7.73981 5.4947 7.6171 5.48849 7.48196 5.48849C7.02296 5.48849 6.54446 5.62349 6.25496 5.91899C6.24485 5.92932 6.2343 5.94004 6.22336 5.95117C5.85299 6.32784 5.02796 7.1669 5.02796 8.83949C5.02796 10.5153 6.21702 12.1371 6.43703 12.4372C6.44309 12.4455 6.44842 12.4528 6.45296 12.459C6.4662 12.4764 6.49115 12.5125 6.52746 12.5651C6.97668 13.2156 9.16471 16.3843 12.4275 17.736C15.1845 18.879 16.0035 18.7725 16.6305 18.639Z" fill="#818895"/>
</svg>
